# xmcd
#
# Track frame offsets:
#	150
#	13721
#	37547
#	55641
#	75809
#	106437
#	126444
#	150078
#	174469
#	192812
#	221378
#	232827
#	261527
#	277943
#
# Disc length: 3929 seconds
#
# Revision: 1
# Processed by: cddbd v1.5.2PL0 Copyright (c) Steve Scherf et al.
# Submitted via: audiograbber 1.83.01
#
DISCID=9f0f570e
DTITLE=Jimmy Hall - Rendezvous With The Blues
DYEAR=2006
DGENRE=Blues
TTITLE0=That's The Truth
TTITLE1=Don't Hit Me No More
TTITLE2=Twenty-nine Ways To My Baby's Door
TTITLE3=Rendezvous With The Blues
TTITLE4=Long Distance Call
TTITLE5=Too Tall To Mambo
TTITLE6=A Change Is Gonna Come
TTITLE7=The Hunter
TTITLE8=Weep and Moan
TTITLE9=Hold What You Got
TTITLE10=The Money Doesn't Matter
TTITLE11=That Did It Baby
TTITLE12=Night Time is the Right Time
TTITLE13=Duck Soup
EXTD=
EXTT0=
EXTT1=
EXTT2=
EXTT3=
EXTT4=
EXTT5=
EXTT6=
EXTT7=
EXTT8=
EXTT9=
EXTT10=
EXTT11=
EXTT12=
EXTT13=
PLAYORDER=
